<svg viewBox="47.58038330078125 32.230411529541016 104.83912658691406 135.53941345214844" height="200" width="200" xmlns="http://www.w3.org/2000/svg" data-type="color" role="img" preserveAspectRatio="xMidYMid meet" style="">
  <g>
      <path d="M134.704 101.988c-7.739 5.567-17.481 8.707-27.036 7.535-18.788-2.291-30.413-15.173-32.637-34.979-.526-4.684-.288-9.267 1.222-13.713 2.054-6.042 5.601-11.575 10.064-16.14 2.376-2.444 5.024-4.65 7.909-6.483a26.599 26.599 0 0 1 6.568-2.953c9.08-2.664 19.67-2.291 27.969 2.512 6.313 3.666 12.254 8.316 16.242 14.426 11.338 17.328 6.026 38.05-10.301 49.795z" fill="#FCFAFA" data-color="1"></path>
      <path d="M146.175 51.493c-4.142-6.332-10.293-11.159-16.831-14.946-8.612-4.989-19.583-5.363-28.987-2.606a26.953 26.953 0 0 0-6.804 3.064c-2.993 1.891-5.727 4.184-8.2 6.714-4.619 4.724-8.294 10.453-10.427 16.72-1.565 4.598-1.81 9.362-1.264 14.207 2.303 20.52 14.363 33.873 33.829 36.246 9.893 1.207 19.991-2.047 28-7.81 16.919-12.175 22.419-33.645 10.684-51.589zm1.339 13.407c5.621 16.647-8.073 34.498-23.006 40.443-5.768 2.296-13.048 3.358-19.123 1.832-6.717-1.688-9.292-8.544-5.492-14.765 9.375-15.348 21.684-26.045 39.268-32.566 4.302-1.594 7.185 1.598 8.353 5.056zm-19.049-22.126c2.531.165 4.982 1.246 7.766 3.004 1.948 1.23 3.965 4.132 3.824 6.805-.158 2.849-1.749 4.531-3.824 5.357-18.164 7.174-33.284 20.454-41.707 38.232-2.426 5.134-5.38 2.994-8.334-.206-2.479-2.69-5.096-7.362-4.762-10.843 1.319-20.223 26.815-43.668 47.037-42.349zm-7.037-4.537c.386.149.348.713-.046.84-11.458 3.7-18.875 7.761-25.638 13.946-6.592 6.034-11.979 15.167-16.617 23.805-.22.41-.802.362-.986-.066-8.729-20.287 21.564-46.917 43.287-38.525z" fill="#1D1E21" data-color="2"></path>
      <path fill="#1D1E21" d="M75.756 133.792l-.018.018v-.018h.018z" data-color="2"></path>
      <path d="M121.861 167.043c-7.828.839-15.783 1.088-23.601.008-8.145-1.125-15.265-3.908-22.225-8.211-5.653-3.495-11.266-7.201-16.441-11.381-4.319-3.518-9.578-7.915-11.69-13.245a9.07 9.07 0 0 1-.318-.933c-.232-1.338 6.784 4.732 10.043 7.256a193.565 193.565 0 0 1 5.799 4.657c8.091 6.774 17.057 12.803 27.158 16.279 7.278 2.505 15.031 3.441 22.631 1.96a43.138 43.138 0 0 0 8.45-2.597c2.268-.967 5.152-1.055 5.574 2.04.511 3.622-2.918 3.904-5.38 4.167z" fill="#1D1E21" data-color="2"></path>
      <path d="M100.285 143.381c-.176 1.952-1.67 2.69-3.605 3.007-.881.14-1.797.041-2.671-.107-1.176-.2-2.331-.524-3.463-.897a44.3 44.3 0 0 1-3.92-1.515 58.37 58.37 0 0 1-7.876-4.197 37.632 37.632 0 0 1-3.287-2.339 18.207 18.207 0 0 1-2.222-2.133c-.635-.718-1.281-1.47-1.779-2.293a9 9 0 0 1-1.118-2.97c-.066-.343-.164-.694-.164-1.045 0-.691 1.637.705 1.769.819a28.129 28.129 0 0 1 2.313 2.255c.51.556 1.072 1.141 1.65 1.633.772.657 1.552 1.092 2.463 1.516 1.913.892 3.82 1.797 5.8 2.536.962.359 1.934.688 2.917.985a42.514 42.514 0 0 0 5.918 1.346c1.286.195 2.581.327 3.88.393 1.795.087 3.624.755 3.395 3.006z" fill="#1D1E21" data-color="2"></path>
      <path d="M117.704 87.386a.333.333 0 0 1 .039-.036.338.338 0 0 1 .198-.049c.819-.011 1.727.571 2.427 1.049.913.624 1.802 1.437 2.446 2.467.938 1.501 1.196 3.377 1.207 5.236.01 1.558-1.299 2.464-2.253 1.992-1.544-.764-2.227-2.294-2.583-4.226-.375-2.035-.942-3.963-1.534-5.908-.053-.175-.053-.406.053-.525z" fill="#1D1E21" data-color="2"></path>
      <path d="M111.963 90.564c1.087-.327 2.43 3.111 2.705 4.012.561 1.842.493 3.882-.312 5.605-.224.478-1.623.808-1.914.478-1.177-1.336-1.71-3.154-1.654-5.087.038-1.322.024-3.547.74-4.633.137-.21.283-.329.435-.375z" fill="#1D1E21" data-color="2"></path>
      <path d="M127.801 85.28c.259-.39.782-.464 1.61-.065.708.342 1.323 1.033 1.793 1.836 1.048 1.793 1.853 3.847.712 5.076-1.346 1.45-3.42-2.741-3.952-4.261-.402-1.146-.482-2.106-.163-2.586z" fill="#1D1E21" data-color="2"></path>
      <path d="M139.418 83.618c.515 1.218.943 2.635-.113 3.148-1.317.641-2.453-.595-3.131-2.142-.572-1.307-1.555-3.16.202-3.602 1.329-.334 2.374.989 3.042 2.596z" fill="#1D1E21" data-color="2"></path>
  </g>
</svg>
