<svg viewBox="16.80538558959961 39.219207763671875 166.390380859375 121.56181335449219" height="200" width="200" xmlns="http://www.w3.org/2000/svg" data-type="color" role="img" preserveAspectRatio="xMidYMid meet" style="">
    <g>
        <path d="M180.589 122.249c-.948 1.322-1.582 4.918-2.485 6.46-1.332 2.313-4.221 4.389-6.162 6.261-1.061 1.035-6.086.618-7.35 1.433-.925.595-2.19.771-3.07 1.41-1.038.771-1.332 1.916-1.806 3.04-.497 1.189-1.151 2.357-1.761 3.48-1.309 2.379-1.089 9.371-3.008 11.309-1.693 1.696-6.304.994-8.945.994-.655.11-1.807 0-2.485 0-5.44 0-9.486-5.417-15.107-12.026-4.853-5.705-11.652-9.749-19.755-14.265-8.623-4.78-17.223-9.648-25.824-14.494a3987.413 3987.413 0 0 0-25.011-14.054c-3.86-2.159-7.223-3.502-11.038-3.106-7.743.771-13.95-2.731-18.465-5.881-6.162-4.273-9.007-8.15-8.939-12.225.045-3.987 4.911-7.079 10.938-11.308-1.693-12.534.811-23.717 10.833-26.934 10.858-3.48 17.213 4.165 23.172 14.562.903 1.564 1.603 3.216 2.302 4.824 1.512 3.524 2.957 6.851 5.959 8.547 5.214 2.974 10.384 6.256 15.395 9.428 20.361 12.886 38.791 28.92 64.682 25.153 2.077-.308 5.201-1.104 7.255-.795 6.682 1.013 15.307 3.582 17.79 9.243 1.876 4.295 3.968 7.446 2.885 8.944z" fill="#FCFAFA" data-color="1"></path>
        <path d="M159.628 121.205a.15.15 0 0 1-.033-.013.284.284 0 0 1-.1-.118c-.317-.571-.37-1.451-.394-2.142-.032-.9.04-1.863.315-2.743.401-1.282 1.252-2.242 2.187-3.021.784-.653 1.741-.109 1.866.757.202 1.402-.311 2.517-1.152 3.57-.886 1.108-1.645 2.306-2.402 3.529-.069.11-.186.206-.287.181z" fill="#1D1E21" data-color="2"></path>
        <path d="M166.322 123.63c-.623-.698.516-3.165.848-3.752.678-1.2 1.721-2 2.918-2.101.332-.028 1.089.908 1.049 1.27-.165 1.461-.843 2.63-1.827 3.395-.673.523-1.773 1.463-2.616 1.367a.565.565 0 0 1-.372-.179z" fill="#1D1E21" data-color="2"></path>
        <path d="M152.805 119.562c-.318.158-.721-.051-1.187-.767-.399-.612-.614-1.436-.687-2.269-.162-1.861-.061-3.791 1.175-4.126 1.457-.394 1.563 3.764 1.442 5.161-.091 1.054-.352 1.806-.743 2.001z" fill="#1D1E21" data-color="2"></path>
        <path d="M128.328 114.425c-.34 0-.647-.321-.859-1.063-.181-.635-.129-1.364.056-2.044.415-1.52 1.093-2.992 2.331-2.771 1.459.26.296 3.556-.238 4.603-.403.788-.871 1.275-1.29 1.275z" fill="#1D1E21" data-color="2"></path>
        <path d="M141.928 114.973c.361-.753.863-1.511 1.625-.947.95.704.877 1.893.429 2.866-.378.822-.833 2.106-1.894 1.033-.803-.812-.643-1.966-.16-2.952z" fill="#1D1E21" data-color="2"></path>
        <path d="M102.695 103.629c-.429-.507.138-2.108.31-2.485.353-.771.957-1.251 1.698-1.25.206 0 .733.677.728.919-.018.978-.373 1.728-.943 2.187-.39.314-1.021.885-1.553.771a.426.426 0 0 1-.24-.142z" fill="#1D1E21" data-color="2"></path>
        <path d="M87.468 89.63c.52.599-.153 2.528-.359 2.984-.421.931-1.145 1.518-2.038 1.532-.248.004-.886-.796-.882-1.086.016-1.171.439-2.077 1.122-2.639.467-.384 1.224-1.081 1.865-.956.124.024.22.081.292.165z" fill="#1D1E21" data-color="2"></path>
        <path d="M79.712 85.669c.274.315-.081 1.33-.189 1.569-.221.49-.602.798-1.072.806-.13.002-.466-.419-.464-.571.008-.616.231-1.093.59-1.388.246-.202.644-.569.981-.503a.263.263 0 0 1 .154.087z" fill="#1D1E21" data-color="2"></path>
        <path d="M95.612 99.341c-.294.025-.6-.213-.878-.802-.238-.503-.286-1.1-.213-1.668.164-1.268.56-2.517 1.657-2.429 1.293.103.712 2.873.384 3.765-.246.672-.588 1.103-.95 1.134z" fill="#1D1E21" data-color="2"></path>
        <path d="M120.121 111.5c-.258 0-.49-.243-.651-.806-.137-.481-.098-1.033.043-1.549.315-1.152.829-2.267 1.767-2.1 1.106.197.225 2.694-.181 3.488-.305.598-.661.967-.978.967z" fill="#1D1E21" data-color="2"></path>
        <path d="M111.3 106.189c.274-.571.654-1.145 1.231-.718.72.533.665 1.435.325 2.172-.287.623-.631 1.596-1.435.783-.608-.615-.487-1.49-.121-2.237z" fill="#1D1E21" data-color="2"></path>
        <path d="M52.713 71.05c-.237-1.057 2.252-2.365 2.904-2.632 1.334-.546 2.811-.48 4.058.304.346.218.585 1.579.346 1.863-.967 1.145-2.284 1.664-3.683 1.61-.957-.037-2.568-.024-3.354-.72a.814.814 0 0 1-.271-.425z" fill="#1D1E21" data-color="2"></path>
        <path d="M51.233 63.822c-.283-.252-.336-.761-.047-1.567.248-.689.748-1.288 1.329-1.744 1.298-1.02 2.785-1.803 3.675-.692 1.049 1.31-1.984 3.328-3.085 3.846-.829.39-1.524.468-1.872.157z" fill="#1D1E21" data-color="2"></path>
        <path d="M50.03 52.518c.882-.501 1.907-.918 2.279.109.464 1.282-.43 2.387-1.551 3.046-.946.557-2.288 1.513-2.608-.196-.241-1.293.717-2.309 1.88-2.959z" fill="#1D1E21" data-color="2"></path>
        <path d="M148.588 160.781c-5.762 0-11.677-3.608-17.615-10.756-5.137-6.182-11.251-11.116-19.824-15.998-9.117-5.193-18.198-10.449-27.28-15.706-8.8-5.093-17.601-10.187-26.433-15.223-4.072-2.321-7.62-3.784-11.669-3.357-8.181.842-14.727-2.955-19.514-6.363-6.495-4.625-9.497-8.835-9.447-13.251.05-4.319 3.058-8.49 9.442-13.056-1.808-13.581 3.157-23.304 13.76-26.795 11.457-3.779 18.002 2.952 24.302 14.215.942 1.685 1.7 3.485 2.434 5.226 1.605 3.812 3.122 7.413 6.292 9.261 5.512 3.213 10.982 6.762 16.272 10.194 21.51 13.957 41.824 27.144 69.17 23.063a22.449 22.449 0 0 1 6.669.009c7.059 1.098 14.266 8.414 16.895 14.561 1.982 4.633 1.044 7.551-.092 9.181-.996 1.428-1.888 3-2.832 4.663-1.424 2.507-3.106 4.885-5.157 6.92a23.362 23.362 0 0 1-3.7 3.003c-.987.642-2.301.838-3.234 1.54-1.105.832-1.415 2.069-1.907 3.276-.524 1.286-1.218 2.549-1.875 3.772-1.38 2.571-3 5.032-5.037 7.134-1.786 1.843-4.75 4.323-7.521 4.323-.698.11-1.397.164-2.099.164zM47.153 94.898c4.811 0 8.911 1.925 12.646 4.055 8.841 5.041 17.651 10.14 26.46 15.239 9.072 5.25 18.144 10.501 27.252 15.688 9.094 5.179 15.61 10.452 21.131 17.095 5.438 6.545 10.716 9.628 15.319 8.93 4.739-.729 6.857-7.289 6.874-18.451.002-1.422 1.032-2.899 2.314-3.128 1.203-.215 2.487.464 3.673.617 1.294.167 2.629.197 3.899-.141 3.552-.946 6.441-3.326 8.246-6.508 1.055-1.86 2.85-3.846 3.26-5.967.708-3.665-2.78-7.777-5.163-10.166-2.307-2.314-5.329-4.681-8.652-5.201a17.509 17.509 0 0 0-5.232-.005c-29.125 4.342-51.162-9.953-72.471-23.78-5.242-3.401-10.664-6.919-16.077-10.076-4.545-2.65-6.533-7.368-8.285-11.531-.714-1.695-1.388-3.295-2.201-4.748-7.208-12.887-12.12-14.159-18.646-12.012-8.645 2.846-9.863 13.666-4.697 26.581.745 1.863-1.455 2.962-2.385 2.982-9.789.206-11.441 3.292-11.474 6.139-.03 2.678 1.037 5.396 6.077 8.984 6.18 4.4 11.04 6.052 16.253 5.503a17.974 17.974 0 0 1 1.879-.099z" fill="#1D1E21" data-color="2"></path>
    </g>
</svg>
