<svg viewBox="52.58395004272461 36.36607360839844 91.02127075195312 127.26376342773438" height="200" width="200" xmlns="http://www.w3.org/2000/svg" data-type="color" role="img" preserveAspectRatio="xMidYMid meet" style="">
    <g>
        <path d="M142.373 154.345c-.521-1.415-1.819-2.683-2.776-3.351-.993-.684-2.072-1.186-3.115-1.658-1.237-.566-2.41-1.1-3.414-1.917-.712-.595-1.114-1.587-1.338-2.433-.217-.839-.255-1.54-.255-1.54.003-.383-.03-9.289-.899-12.859-.771-3.147-2.984-5.553-3.707-6.274-.048-1.675-.131-3.645-.211-4.171-.031-.207-.084-.902-.14-1.766-.295-4.033-.961-13.487-2.984-17.473l-.628-1.241c-1.656-3.29-3.05-6.042-4.641-8.025-.599-.739-.767-1.732-.523-2.654 1.91-7.052 2.301-16.02 2.345-16.557l.001-.022c.013-.206.145-2.827-.161-5.946.431-.548.876-1.376 1.283-2.116.169-.312.322-.588.438-.791 3.438-5.675 6.406-12.012 4.804-19.812-.013-.059-1.122-6.332-2.75-6.982-.338-.142-.641.032-.931.237-.394.269-1.459 1.915-4.085 4.37-1.556 1.445-3.709 2.806-3.954 2.991-.521.376-4.207 4.811-5.867 6.592l-.642-.387c-.05-.038-.497-.358-.504-.365-1.733-1.317-6.052-2.111-6.602-2.23-1.957-.357-3.863.009-5.448.4-.482-2.557-1.801-9.002-4.896-10.091-.058-.024-.27.378-.279-.313-.311-.075-.403-.038-.769.04 0 0-.2.23-.222.237-4.15.943-11.765 11.762-11.95 13.187-.035.22.002.597.066.916.039.178.162.398.228.621.788 2.307 3.512 6.393 6.52 9.551-.348 1.501-.716 3.476-1.134 5.374-.493 2.242-.683 4.761-.41 7.747.048.621.204 1.151.295 1.802.012.089.176.592.196.681.595 4.233 1.564 7.431 2.743 10.612.338.924.176 2.718-.436 3.489-1.534 1.962-3.347 5.9-3.97 11.22-.412 3.527-1.467 11.918-2.048 20.401-.051.795-1.501 1.931-2.26 1.718-1.778-.5-3.607-1.469-4.882-2.256-1.117-.695-2.075-1.699-2.692-2.564-.623-.887-1.053-1.939-1.482-2.99-.102-.261-.275-.525-.377-.778-.116-.291-.045-.536-.161-.834-.211-.544-.339-.793-.607-1.368-.13-.298-.125-.825-.7-.849-.342-.017-.184-.123-.338.175-1.069 1.997-1.193 4.582-1.141 6.08.1 2.406 1.06 4.627 2.695 6.833 1.917 2.575 3.899 4.368 5.959 5.45-.449 3.01-.54 8.685-.707 12.034-.066 1.303-.133 2.493-.168 2.684-.017.103.119.656.099.832-.16 1.278-1.191 2.625-3.13 3.168-2.504.704-7.367 2.708-8.628 4.273-.792.973-1.777 2.368-1.219 4.02.221.692.427 1.515 1.852 1.864.449.108.982.212 1.499.226 2.591.08 6.02-1.134 8.455-2.496.153.793.735 1.77 1.588 2.502 1.245 1.067 2.629 1.633 4.375 1.689.517.015.971.085 1.505.012 1.653-.248 3.271-.71 4.483-1.87 1.482-1.411 2.295-3.385 2.961-5.283.34-.963.558-1.967.587-2.984.024-.854.568-1.42 1.189-.968 2.634 1.932 7.034 3.617 12.327 4.001.138.011.361.102.5.106 5.816.186 12.197-3.14 15.348-5.61.588-.455 2.01-1.192 2.289-.498.749 1.864 2.141 3.601 3.649 5.693 1.353 1.896 2.86 4.619 6.471 4.728.291.008.619.132.918.118 2.329-.178 3.806-.366 4.687-1.403.294-.346.889-1.76 1.003-2.184.786.28 1.596.867 2.585.902 1.427.04 2.636.381 3.531-.353.561-.45 1.377-1.474.707-3.314zM108.195 50.213v-.007l.036.031-.036-.024z" fill="#FCFAFA" data-color="1"></path>
        <path d="M92.642 125.265c-.007-.001-.014-.002-.021-.001a.167.167 0 0 0-.083.039c-.312.231-.556.693-.74 1.061-.239.479-.436 1.017-.504 1.56-.098.792.125 1.52.439 2.171.263.546.914.487 1.195.049.454-.708.451-1.437.255-2.213-.206-.817-.322-1.651-.43-2.498-.01-.077-.05-.157-.111-.168z" fill="#1D1E21" data-color="2"></path>
        <path d="M89.911 86.073c-.131-.024-.194-.181-.146-.508.041-.28.188-.583.378-.855.425-.61.943-1.181 1.382-1.001.517.212-.506 1.516-.895 1.919-.292.303-.557.475-.719.445z" fill="#1D1E21" data-color="2"></path>
        <path d="M98.053 127.581c-.222.013-.449-.174-.646-.624-.169-.385-.193-.838-.126-1.265.151-.955.477-1.89 1.304-1.8.975.105.477 2.186.21 2.853-.201.502-.468.82-.742.836z" fill="#1D1E21" data-color="2"></path>
        <path d="M112.497 128.094c.44-.199 1.237.768 1.412 1.028.359.532.465 1.183.236 1.798-.063.171-.636.399-.781.32a1.992 1.992 0 0 1-1.037-1.461c-.071-.421-.223-1.123.009-1.529a.374.374 0 0 1 .161-.156z" fill="#1D1E21" data-color="2"></path>
        <path d="M108.85 128.656c-.195.047-.433-.082-.698-.451-.226-.316-.337-.714-.362-1.105-.055-.874.051-1.759.804-1.813.888-.064.856 1.868.751 2.505-.08.479-.255.806-.495.864z" fill="#1D1E21" data-color="2"></path>
        <path d="M103.124 124.688c.046-.536.174-1.109.734-.962.699.183.913.907.863 1.594-.042.581-.028 1.455-.871 1.08-.637-.284-.793-1.008-.726-1.712z" fill="#1D1E21" data-color="2"></path>
        <path d="M108.37 51.79c-.069.094-.131.188-.192.275.061-.087.13-.181.199-.275h-.007zm.208-1.638v.007l.036.023-.036-.03z" fill="#1D1E21" data-color="2"></path>
        <path d="M82.542 75.596l-.043-.038.269 1.954a38.485 38.485 0 0 1-.226-1.916z" fill="#1D1E21" data-color="2"></path>
        <path fill="#1D1E21" d="M108.614 50.182l-.036-.023v-.007l.036.03z" data-color="2"></path>
        <path d="M113.107 74.964c-.571-.12-.364-.826-.441-1.286-.095-.571-.484-1.015-.756-1.527-.427-.803-1.163-1.567-2.13-1.595-.836-.024-1.545.534-2.014 1.179-.297.408-.519.87-.678 1.349-.186.559-.094 1.547-.933 1.568-1.991.05.307-3.714.814-4.26.737-.794 1.75-1.339 2.853-1.308 1.345.038 2.473.899 3.172 2.002.371.585 1.945 4.246.113 3.878z" fill="#1D1E21" data-color="2"></path>
        <path d="M107.001 91.971c-.066.01-.128.021-.183.034-.755.173-1.44.603-2.183.822-.748.221-1.514.376-2.289.464-.124.014-.261.023-.361-.052-.168-.128-.114-.389-.043-.588l.233-.65a.546.546 0 0 1 .113-.211c.093-.092.235-.105.366-.117 2.005-.179 4.649-1.394 4.715-3.724.062-2.21-2.36-4.288-5.623-4.379-3.263-.092-6.326 1.849-6.388 4.059-.055 1.966 2.297 3.606 5.031 4.007a.352.352 0 0 1 .306.355l-.016.577a.357.357 0 0 1-.42.341 12.958 12.958 0 0 1-2.548-.78 9.207 9.207 0 0 1-.916-.445c-.397-.223-.742-.588-1.223-.285-.631.396-.241.805.165 1.103.415.304.854.575 1.309.815 1.355.714 2.794.896 4.309 1.047.103.01.206.013.317.016 1.121.032 2.226.035 3.3-.285a12.15 12.15 0 0 0 1.681-.642c.351-.164 1.639-.495 1.572-1.042a.353.353 0 0 0-.077-.169.774.774 0 0 0-.467-.264 1.99 1.99 0 0 0-.68-.007zM96.77 87.913c.038-1.341 2.584-2.937 4.934-2.871 2.357.066 4.072 1.568 4.034 2.908-.038 1.341-1.929 2.833-4.286 2.767-2.349-.066-4.719-1.463-4.682-2.804z" fill="#1D1E21" data-color="2"></path>
        <path d="M143.345 154.19c-.528-1.415-1.849-2.684-2.818-3.345-1.005-.684-2.097-1.179-3.16-1.652-1.252-.566-2.439-1.093-3.455-1.911-.728-.588-1.135-1.58-1.362-2.427a8.354 8.354 0 0 1-.266-1.541c.003-.383-.056-9.29-.951-12.861-.789-3.14-3.036-5.54-3.768-6.261-.056-1.675-.148-3.646-.229-4.171-.031-.207-.085-.902-.149-1.766-.307-4.033-1.014-13.482-3.07-17.461l-.643-1.242c-1.684-3.283-3.103-6.036-4.721-8.013-.606-.739-.784-1.732-.537-2.654 1.909-7.06 2.279-16.028 2.323-16.565l.001-.022c.013-.206.138-2.827-.187-5.947.436-.548.886-1.376 1.29-2.116.171-.312.326-.588.442-.791 3.462-5.689 6.442-12.034 4.796-19.827-.013-.059-1.468-6.521-3.116-7.172a1.04 1.04 0 0 0-.998.112c-.398.269-2.04 1.778-4.689 4.24-1.567 1.445-3.345 3.083-3.593 3.268-.527.376-4.234 4.304-5.906 6.085l-.022-.015c-.051-.038-.094-.069-.101-.077-1.754-1.31-6.554-2.329-7.111-2.448a12.82 12.82 0 0 0-5.379.173c-.496-2.557-2.026-8.947-5.166-10.03a.829.829 0 0 0-.19-.05 2.352 2.352 0 0 0-1.032.008s-.067.013-.082.02c-4.199.951-12.142 12.382-12.322 13.807-.036.22-.013.464.052.783.039.178.1.379.175.602.798 2.308 3.523 6.571 6.575 9.723-.344 1.501-.709 3.187-1.123 5.084-.491 2.242-.594 4.878-.309 7.864.056.621.134 1.264.226 1.916.012.089.024.185.044.274a53.28 53.28 0 0 0 2.872 11.138c.35.924.086 2.192-.526 2.963-1.552 1.961-3.59 6.047-4.204 11.367-.409 3.527-1.216 12.04-1.778 20.524a1.258 1.258 0 0 1-1.587 1.135c-1.807-.493-3.337-1.133-4.627-1.921-1.131-.688-2.015-1.472-2.64-2.337-.631-.88-1.072-1.969-1.507-3.02-.103-.261-.214-.522-.317-.776a30.494 30.494 0 0 1-.366-.887 25.18 25.18 0 0 0-.712-1.679c-.139-.299-.388-.866-.97-.89-.346-.017-.609.16-.765.458-1.074 2.004-1.124 4.834-1.063 6.332.11 2.399 1.002 4.731 2.665 6.93 1.94 2.576 3.982 4.424 6.074 5.5-.446 3.01-.69 8.296-.851 11.645-.059 1.303-.115 2.533-.15 2.723a7.488 7.488 0 0 0-.056.419c-.154 1.278-.474 2.692-2.428 3.242-2.534.71-8.054 2.789-9.33 4.36-.794.973-1.649 3.079-1.084 4.732.231.692.811 1.586 2.253 1.928a7.27 7.27 0 0 0 1.477.182c2.622.074 5.924-.947 8.38-2.315.155.793.735 1.657 1.599 2.389 1.26 1.06 2.902 1.652 4.67 1.701a9.18 9.18 0 0 0 1.61-.102c1.666-.248 3.249-.978 4.476-2.137 1.492-1.418 2.307-3.392 2.98-5.297.337-.964.557-1.967.578-2.984.024-.854.78-.723 1.408-.27 2.673 1.925 6.987 3.174 12.351 3.546.14.011.287.015.427.019 5.885.165 12.339-3.361 15.519-5.837.595-.455 1.305-.288 1.588.406.766 1.864 2.128 3.51 3.654 5.602 1.377 1.889 3.594 4.325 7.247 4.428.295.008.59.002.893-.019 2.356-.177 3.988-.787 4.872-1.824.297-.353.5-.745.615-1.17.796.28 1.786.456 2.788.484 1.444.041 2.896-.236 3.801-.969.556-.45 1.381-1.48.695-3.313zm-28.01-108.92c.271-.191 1.345-1.178 3.737-3.389 1.37-1.259 2.799-2.531 3.726-2.755a.588.588 0 0 1 .541.148c.811.782 1.822 3.354 2.103 4.652 1.535 7.289-1.311 13.328-4.618 18.756-.124.218-.295.515-.474.857-.093.174-.194.363-.311.559-.306-1.689-.621-3.077-1.333-4.49.662-1.013 2.291-4.159 2.662-5.815.388-1.751.589-4.944.683-6.475l.027-.434c.05-.743-.317-1.048-.542-1.158-.756-.382-1.617.345-2.372.98a5.002 5.002 0 0 1-.272.228c-.46.356-4.836 4.471-6.335 5.889a37.039 37.039 0 0 0-2.503-1.707c2.516-2.673 4.927-5.568 5.281-5.846zm2.174 12.349c-1.162-1.669-2.139-2.566-3.523-3.689.277-.169 2.469-2.356 2.75-2.643.675-.674 1.336-1.363 1.996-2.052.349-.366 1.217-1.61 1.529-1.151.432.631.115 1.935.072 2.427-.089 1.052-.179 1.926-.408 2.959-.244 1.107-1.59 2.824-2.416 4.149zM96.562 70.624c.367.585 1.945 4.249.112 3.881-.572-.119-.367-.829-.443-1.288-.095-.57-.487-1.016-.753-1.525-.427-.808-1.165-1.566-2.13-1.593-.839-.031-1.548.531-2.016 1.174a4.96 4.96 0 0 0-.679 1.352c-.185.555-.095 1.545-.936 1.566-1.984.047.311-3.714.82-4.26.737-.798 1.748-1.344 2.853-1.306 1.34.038 2.466.895 3.172 1.999zM88.23 52.337c-.924.873-1.538 1.755-2.155 3.242-.684-1.088-2.291-2.423-2.769-3.24.852-.16 2.03-.363 2.419-.566.374-.196 1.032-.539 2.549-5.45.7 1.324 1.679 3.195 2.154 4.137a23.482 23.482 0 0 0-2.198 1.877zm2.022-13.197a.142.142 0 0 1 .081.01c2.132.738 3.622 5.933 4.22 9.06-1.08.39-2.052.893-2.893 1.415-.692-1.354-2.301-3.647-2.984-4.787.63-2.201 1.327-4.681 1.576-5.698zm-1.667.587a143.19 143.19 0 0 1-1.217 4.477l-.097.322c-.747 2.463-1.69 6.086-4.709 6.509-1.132.16-2.5.291-3.777.358.999-1.991 6.332-9.471 9.8-11.666zm-8.483 15.389c-.371-.689-.423-1.995.353-2.061.606-.049 1.272-.421 1.827-.487.064.098.134.21.205.33 1.302 2.204 2.309 3.869 2.855 4.636-.33 1.001-.635 2.127-.958 3.401-2.009-2.217-3.266-3.933-4.282-5.819zm4.356 23.63c.073.032.146.063.226.087.08.039.16.071.248.103.087.039.182.071.27.103.343.135.715.263 1.11.385.197.065.402.129.607.187.329.098.673.188 1.024.272.146.041.293.075.447.108.286.067.586.127.88.18.235.043.477.087.719.123.565.09 1.138.15 1.712.188.221.014.449.027.67.034.317.009.626.01.936-.003l.347-.012c.133-.004.266-.015.399-.033.258-.015.517-.044.769-.082.266-.037.526-.088.786-.147 5.401-1.212 7-6.968 7.786-11.856.259-1.6.464-3.142.668-4.64.428-3.15.791-5.868 1.405-7.251a3.59 3.59 0 0 1 .141-.298c.024-.066.063-.131.102-.204.008-.022.016-.044.031-.065.048-.117.11-.233.187-.356.233-.436.52-.914.859-1.443.077-.123.155-.254.247-.384.332-.521.716-1.086 1.146-1.678.061-.087.123-.181.192-.275h.007c.196.123.391.254.608.4 2.209 1.411 5.54 3.539 7.767 6.919 2.716 4.094 2.331 12.789 2.315 13.105-.036.493-1.438 17.85-5.056 22.54l-.704.924c-3.344 4.358-5.533 7.238-10.973 6.967-5.558-.281-11.27-6.059-13.389-9.878-1.041-1.87-3.379-7.583-4.489-14.02zm-15.996 47.488c-1.478-1.958-2.268-4.007-2.364-6.104-.017-.45-.108-.888-.125-1.338-.006-.317.034-.67.138-.977.073-.241.246-.612.541-.633.133-.011.256.081.341.187.093.113.125.284.18.418.076.164.16.329.229.493.462 1.133.992 2.21 1.723 3.233.738 1.023 1.773 1.944 3.063 2.74 1.297.788 2.639.722 4.082 1.824.469.352.162.746-.135 1.139-1.065 1.408-1.96 2.143-2.467 3.898-1.769-1.002-3.522-2.644-5.206-4.88zm3.641 31.225c-2.558 1.852-7.35 3.42-10.052 2.777-.637-.151-1.026-.464-1.197-.962-.354-1.049.266-2.639.831-3.331.832-1.016 5.413-2.981 8.594-3.879 3.061-.858 3.371-3.495 3.487-4.48a1.96 1.96 0 0 1 .038-.286c.051-.242.086-.949.179-2.958.167-3.6.481-10.292 1.056-12.649.383-1.574 1.634-2.519 2.87-3.237.45-.267.944-.01.907.512-.53 8.094-.718 14.782-.729 14.936-.115 3.292-.813 8.978-2.204 10.214-.552.493-1.095.928-1.615 1.34-.89.704-1.666 1.324-2.165 2.003zm62.217.745c-.427.497-1.432 1.124-3.855 1.3-2.667.205-4.779-.975-6.845-3.797-2.378-3.266-3.699-6.09-4.158-8.889-.692-4.236-.835-8.589-.938-13.044a47.804 47.804 0 0 0-.101-2.192c-.066-1.056 0-2.108.096-3.16.044-.529.103-1.051.155-1.58.049-.448.218-1.21-.193-1.539-.49-.39-1.527-.5-1.991.025-.259.295-.466.835-.446 1.196.016.487.07 1.196.137 1.677.23 1.776.519 3.575.63 5.377.118 1.824.126 3.652.259 5.484.198 2.674.211 5.336.645 7.987.026.141.051.289.076.43-1.397 1.17-9.701 8.146-16.463 7.705-6.887-.466-12.657-5.508-13.937-6.657.079-.971.041-1.997.113-2.975.298-4.319.522-8.625 1.107-12.913.185-1.344.334-2.689.541-4.024.183-1.27.47-2.545.498-3.819.005-.177.003-.354-.067-.518-.277-.649-1.44-.697-2.005-.521-.201.061-.41.165-.511.354-.218.421-.102 1.28-.124 1.78-.023.552-.046 1.104-.076 1.664a456.618 456.618 0 0 1-.226 4.623 694.005 694.005 0 0 1-.7 11.79 354.326 354.326 0 0 1-.289 3.987c-.57 7.157-.783 8.713-.857 8.999-.769 2.986-2.593 4.66-5.569 5.114-2.754.424-4.483-.745-5.102-1.264-.77-.656-1.127-1.344-1.131-1.72-.009-.715.963-1.491 2.193-2.474a35.994 35.994 0 0 0 1.676-1.39c2.314-2.058 2.664-10.334 2.697-11.247.024-.331 1.978-32.88 2.857-40.551.233-2.006.695-3.998 1.455-5.871.388-.955.856-1.878 1.426-2.739.277-.42.248-.443.576-.832.876-1.022 2.226.254 2.694.946.305.443.418.594.745 1.016a28.147 28.147 0 0 0 2.545 2.836c2.016 1.958 4.371 3.691 7.035 4.643 1.073.384 2.23.667 3.371.699l.354.01c5.944.167 8.431-3.08 11.859-7.554l.704-.916c.252-.317.484-.694.716-1.1.661-1.212 1.944-.963 2.67.2 1.016 1.613 2.466 3.261 3.598 5.475l.636 1.242c1.923 3.71 2.622 12.944 2.916 16.889.075 1.012.124 1.625.168 1.899.018.133.102.843.226 4.289.167 4.811.328 12.445.306 17.715-.026 6.42.917 8.031 1.942 8.812l.058.046c.136.144.561.495 1.75 1.457 1.29 1.046 3.964 3.207 4.363 3.705.082.223.142.454.158.675.045.485-.077.895-.367 1.24zm7.401-1.848c-1.162.948-4.229.722-5.626.07a3.793 3.793 0 0 0-.229-.758c-.165-.41-.884-1.079-4.776-4.233-.735-.596-1.492-1.214-1.607-1.328a1.69 1.69 0 0 0-.23-.198c-.346-.26-1.385-1.064-1.363-7.631.019-4.607-.096-11.016-.249-15.782.826 1.033 1.815 2.557 2.26 4.317.855 3.4.912 12.417.915 12.543.003.14.197 3.485 2.172 5.074 1.168.939 2.493 1.53 3.774 2.104 1.048.472 2.038.92 2.935 1.527.832.562 1.886 1.63 2.263 2.644.377.997.041 1.423-.239 1.651z" fill="#1D1E21" data-color="2"></path>
        <path d="M58.242 120.007a.74.74 0 0 1-.954-.513c-.444-1.645-.511-3.38-.079-5.04a9.306 9.306 0 0 1 1.651-3.358c.157-.201.272-.497.523-.6.013-.005.027-.01.04-.006.017.006.026.024.032.04.126.323.161.756.082 1.092-.069.295-.236.553-.37.821-.455.909-.771 1.886-.861 2.901-.113 1.274.052 2.557.405 3.783a.726.726 0 0 1-.469.88z" fill="#1D1E21" data-color="2"></path>
        <path d="M53.418 117.796a.722.722 0 0 1-.8-.665c-.113-1.496.039-3.041.702-4.396.154-.314.331-.619.541-.899.168-.226.326-.622.618-.713.264-.083.382.27.41.467.137.964-.495 1.692-.689 2.581-.205.935-.192 1.909-.119 2.853a.723.723 0 0 1-.643.771l-.02.001z" fill="#1D1E21" data-color="2"></path>
        <path d="M69.434 109.695c-.476-1.055-1.672-2.938-2.616-4.327a.73.73 0 0 1 .187-1.01l.006-.004c.335-.234 1.029-.242 1.259.096.746 1.094 1.876 3.255 2.501 4.645a.734.734 0 0 1-.526 1.025.735.735 0 0 1-.811-.425z" fill="#1D1E21" data-color="2"></path>
        <path d="M72.253 107.578c-.463-1.037-1.4-2.495-2.007-3.384-.194-.285-.178-.707.035-.955l.001-.002c.22-.257.565-.228.767.066.555.811 1.567 2.351 2.125 3.595.167.373.046.838-.263.985-.244.116-.526-.009-.658-.305z" fill="#1D1E21" data-color="2"></path>
        <path d="M112.148 86.947c-.45-.634-1.451-1.69-2.224-2.455-.185-.183-.213-.515-.066-.748l.003-.004c.15-.238.543-.395.732-.209.61.602 1.621 1.867 2.213 2.703.184.26.125.666-.124.833-.181.12-.4.069-.534-.12z" fill="#1D1E21" data-color="2"></path>
        <path d="M92.486 86.478c-.318.379-.808 1.239-1.155 1.907-.083.159-.283.169-.449.022l-.003-.003c-.17-.149-.329-.516-.245-.678.273-.527.89-1.386 1.309-1.884.131-.155.389-.081.532.155.102.17.105.368.011.481z" fill="#1D1E21" data-color="2"></path>
        <path d="M112.862 84.25c-.516-.733-1.432-1.688-2.014-2.262-.187-.184-.26-.535-.168-.794l.001-.002c.095-.267.331-.333.524-.143.532.523 1.514 1.528 2.135 2.405.186.263.198.676.022.876-.14.159-.353.129-.5-.08z" fill="#1D1E21" data-color="2"></path>
    </g>
</svg>
