<svg viewBox="19.66552734375 15.54080581665039 160.66883850097656 168.91819763183594" height="200" width="200" xmlns="http://www.w3.org/2000/svg" data-type="color" role="img" preserveAspectRatio="xMidYMid meet" style="">
    <g>
        <path d="M83.076 15.58c.02.018.037.045.057.086.104.216.286.341.444.51.081.086.161.178.215.284a.383.383 0 0 1 .054.167c-.002.079-.051.082-.132.08a.174.174 0 0 1-.116-.055c-.051-.05-.074-.121-.139-.158a2.634 2.634 0 0 1-.358-.231 1.104 1.104 0 0 1-.331-.434c-.02-.05-.075-.202-.034-.253.042-.052.157-.031.213-.031.061.002.098.009.127.035z" fill="#1D1E21" data-color="1"></path>
        <path d="M19.667 184.459c-.034-.557.53-1.396.766-1.396.264 0-.399.989-.586 1.396h-.18z" fill="#1D1E21" data-color="1"></path>
        <path d="M180.263 128.379c-.081.13-.284.018-.334-.085a.487.487 0 0 1-.034-.208c-.003-.227-.076-.635.06-.831.06-.087.347-.241.347-.034 0 .267.017.534.014.801-.002.111 0 .271-.053.357z" fill="#1D1E21" data-color="1"></path>
        <path d="M180.266 123.324c-.248.254-.395-.253-.366-.412.039-.221-.086-.576.119-.739.209-.166.33.051.308.253-.028.253.038.556-.012.798a.2.2 0 0 1-.049.1z" fill="#1D1E21" data-color="1"></path>
        <path d="M135.222 173.431c-.734.373-1.176.137-1.775-.065-.426-.552 1.929-.258 1.775.065z" fill="#1D1E21" data-color="1"></path>
        <path d="M89.426 163.521c.52-.271 1.515-.039 1.515.148-.655.469-1.593.034-1.515-.148z" fill="#1D1E21" data-color="1"></path>
        <path d="M179.095 138.455c-.341-.485-.177-1.482.081-1.566.366.083.02 1.673-.081 1.566z" fill="#1D1E21" data-color="1"></path>
        <path d="M44.722 160.352c-.15-.403 1.499-.874 1.576-.63.099.278-1.576.801-1.576.63z" fill="#1D1E21" data-color="1"></path>
        <path d="M125.469 76.964c-.64.111-1.692-.003-1.63-.271-.001-.232 1.665-.123 1.63.271z" fill="#1D1E21" data-color="1"></path>
        <path d="M130.355 77.833c-.196.183-.44.113-.68.091-.248-.023-.493-.068-.701-.215-.059-.041-.018-.133.006-.188.006-.013.013-.027.025-.034.011-.007.024-.007.036-.008.236-.012.479-.003.71.054.11.027.216.065.318.115.097.046.204.119.286.185z" fill="#1D1E21" data-color="1"></path>
        <path d="M148.145 82.742c.125-.236 1.146.082 1.64.482.065.322-1.701-.218-1.64-.482z" fill="#1D1E21" data-color="1"></path>
        <path d="M179.377 113.422c-.144-.046-.185-.047-.195-.065-.216-.384-.26-.801-.21-1.23.003-.028.19-.077.206-.055.288.407.268.859.199 1.35z" fill="#1D1E21" data-color="1"></path>
        <path d="M178.09 143.43c-.36.055-.127-.761-.1-.891.026-.123.051-.293.133-.394.035-.043.252-.166.274-.032.055.341-.018.676-.137.995-.03.082-.054.292-.17.322z" fill="#1D1E21" data-color="1"></path>
        <path d="M51.078 158.598c.003.363-1.369.482-1.467.291.069-.404 1.364-.494 1.467-.291z" fill="#1D1E21" data-color="1"></path>
        <path d="M76.056 160.419c-.22.237-1.633.031-1.541-.197.129-.288 1.541-.037 1.541.197z" fill="#1D1E21" data-color="1"></path>
        <path d="M41.85 161.871c.191.286-1.001 1.198-1.155 1.067-.215-.295 1.036-1.222 1.155-1.067z" fill="#1D1E21" data-color="1"></path>
        <path d="M163.824 167.729c.416.316-.695.861-1.393 1.082-.383-.192.738-.925 1.393-1.082z" fill="#1D1E21" data-color="1"></path>
        <path d="M128.593 172.678c-.005-.009-.004-.019-.003-.029.076-.499 1.094-.085 1.342.011.027.01.029.201.003.212-.431.176-.906-.036-1.315-.176-.009-.003-.02-.007-.027-.018z" fill="#1D1E21" data-color="1"></path>
        <path d="M150.108 173.719c-.166.268-.585.307-.869.329-.143.011-.805-.041-.493-.323a.448.448 0 0 1 .214-.088c.184-.038.371-.061.558-.077a.837.837 0 0 1 .352.037.563.563 0 0 1 .238.122z" fill="#1D1E21" data-color="1"></path>
        <path d="M101.34 59.933c.048-.02.114.023.158.062a.66.66 0 0 1 .167.273c.042.105.084.21.118.318.065.208.096.43.03.642-.018.057-.155.122-.211.001-.095-.207-.208-.408-.274-.627a1.366 1.366 0 0 1-.063-.401.704.704 0 0 1 .029-.209c.01-.033.027-.051.046-.059z" fill="#1D1E21" data-color="1"></path>
        <path d="M104.011 65.79a.122.122 0 0 1-.007.017.139.139 0 0 1-.05.052c-.246.161-.428-.178-.543-.343a2.057 2.057 0 0 1-.326-.706c-.005-.023-.01-.046-.005-.068.01-.049.064-.08.114-.079.05.001.096.027.137.056.19.138.293.362.409.566.064.112.315.359.271.505z" fill="#1D1E21" data-color="1"></path>
        <path d="M169.748 161.59c.014-.555.297-.909.771-1.266.551 0-.656 1.421-.771 1.266z" fill="#1D1E21" data-color="1"></path>
        <path d="M89.922 22.725c.126-.167 1.142.923.917 1.123-.217.057-.99-.944-.917-1.123z" fill="#1D1E21" data-color="1"></path>
        <path d="M98.947 36.42c-.068.072-.246-.025-.292-.079-.122-.141-.201-.353-.265-.525a3.209 3.209 0 0 1-.096-.302c-.028-.104-.086-.254.008-.34.066-.061.143-.044.2.019.144.159.236.362.301.564.035.11.062.222.087.335.014.057.1.277.057.328z" fill="#1D1E21" data-color="1"></path>
        <path d="M85.889 162.557c-.176.218-1.581-.017-1.581-.276.065-.315 1.493.038 1.581.276z" fill="#1D1E21" data-color="1"></path>
        <path d="M54.748 158.279c.083-.362 1.511-.42 1.588-.215-.283.418-1.475.418-1.588.215z" fill="#1D1E21" data-color="1"></path>
        <path d="M172.457 157.426c-.02-.142-.071-.249-.037-.302.202-.32.281-.721.61-.954.024-.017.196.104.189.13-.122.441-.285.861-.762 1.126z" fill="#1D1E21" data-color="1"></path>
        <path d="M174.718 153.024c-.013-.665.145-1.095.654-1.538.379 0-.592 2.031-.654 1.538z" fill="#1D1E21" data-color="1"></path>
        <path d="M167.479 164.224c.544.2-.645.938-1.057 1.167-.474-.084.407-.858 1.057-1.167z" fill="#1D1E21" data-color="1"></path>
        <path d="M154.947 172.722c.153.166-.802.516-1.421.336-.192-.407.923-.504 1.421-.336z" fill="#1D1E21" data-color="1"></path>
        <path d="M87.457 20.174c-.25.117-1.347-.95-1.266-1.06.214-.177 1.266.589 1.266 1.06z" fill="#1D1E21" data-color="1"></path>
        <path d="M159.656 170.734c-.291.494-.792.543-1.291.88-.63-.095 1.291-1.243 1.291-.88z" fill="#1D1E21" data-color="1"></path>
        <path d="M34.103 168.399c.283.102-1.071 1.309-1.24 1.141-.184-.215 1.023-1.274 1.24-1.141z" fill="#1D1E21" data-color="1"></path>
        <path d="M114.205 74.481c.063-.206 1.668.332 1.492.514-.369.148-1.568-.374-1.492-.514z" fill="#1D1E21" data-color="1"></path>
        <path d="M133.613 78.623c.055-.405 1.38-.003 1.727.256-.366.261-1.357.074-1.727-.256z" fill="#1D1E21" data-color="1"></path>
        <path d="M93.973 27.608c-.209 0-1.173-1.126-.963-1.174.165-.071 1.071.989.963 1.174z" fill="#1D1E21" data-color="1"></path>
        <path d="M144.879 81.58c-.503.148-.941.026-1.41-.37.14-.314 1.504.079 1.41.37z" fill="#1D1E21" data-color="1"></path>
        <path d="M25.663 176.323c-.182-.168.893-1.243 1.054-1.078.236.233-.971 1.234-1.054 1.078z" fill="#1D1E21" data-color="1"></path>
        <path d="M154.595 85.097c.044.264-1.158-.175-1.519-.476-.017-.014.063-.205.09-.203.469.031.863.232 1.429.679z" fill="#1D1E21" data-color="1"></path>
        <path d="M163.374 89.39c.067.318-.951-.162-1.272-.702-.054-.285.969.309 1.272.702z" fill="#1D1E21" data-color="1"></path>
        <path d="M167.791 92.152c-.691-.047-1.01-.39-1.492-.858.096-.379 1.607.632 1.492.858z" fill="#1D1E21" data-color="1"></path>
        <path d="M174.967 99.207c-.393.319-.856-.693-.925-1.21.311-.208.695.587.925 1.21z" fill="#1D1E21" data-color="1"></path>
        <path d="M178.399 108.43c-.175 0-.646-1.191-.373-1.374.286 0 .64 1.258.373 1.374z" fill="#1D1E21" data-color="1"></path>
        <path d="M104.11 167.147c.482-.14 1.403-.069 1.403.325-.076.264-1.006-.038-1.403-.325z" fill="#1D1E21" data-color="1"></path>
        <path d="M96.023 30.702c.178-.136.928.967.727 1.123-.255.058-.807-1.024-.727-1.123z" fill="#1D1E21" data-color="1"></path>
        <path d="M113.672 169.473c.067-.324 1.55 0 1.55.23-.203.329-1.55.049-1.55-.23z" fill="#1D1E21" data-color="1"></path>
        <path d="M108.859 168.287c.095-.242 1.043.055 1.514.273.001.28-1.595-.015-1.514-.273z" fill="#1D1E21" data-color="1"></path>
        <path d="M120.355 170.918c0 .248-1.799.027-1.799-.23 0-.317 1.674-.053 1.799.23z" fill="#1D1E21" data-color="1"></path>
        <path d="M79.724 161.136c0-.185.4-.043.589-.012.239.039.465.121.638.297.017.018-.021.137-.049.144-.38.091-1.032-.001-1.178-.429z" fill="#1D1E21" data-color="1"></path>
        <path d="M99.934 41.431c-.312-.15-.525-1.371-.236-1.583.19-.068.447 1.514.236 1.583z" fill="#1D1E21" data-color="1"></path>
        <path d="M99.968 46.394c-.103.051-.209-.272-.216-.345-.012-.114-.028-.228-.036-.343-.017-.233.003-.467.129-.669.011-.018.197.023.21.065.072.227.106.469.093.707a1.479 1.479 0 0 1-.064.361.974.974 0 0 1-.07.174.126.126 0 0 1-.046.05z" fill="#1D1E21" data-color="1"></path>
        <path d="M125.004 171.888c0 .352-1.292.028-1.292-.185-.001-.258.889-.043 1.292.185z" fill="#1D1E21" data-color="1"></path>
        <path d="M100.08 51.34c-.265-.122-.325-1.418-.098-1.514.244 0 .259 1.465.098 1.514z" fill="#1D1E21" data-color="1"></path>
        <path d="M61.327 158.283c-.27.269-1.58.4-1.718.094.001-.356 1.567-.356 1.718-.094z" fill="#1D1E21" data-color="1"></path>
        <path d="M176.528 148.224c-.058-.527.122-.926.39-1.379.511 0-.078 1.653-.39 1.379z" fill="#1D1E21" data-color="1"></path>
        <path d="M100.733 56.405c-.014.007-.031.004-.046.001-.185-.04-.25-.126-.31-.295a1.935 1.935 0 0 1-.083-.327 2.148 2.148 0 0 1-.026-.424c.002-.059-.002-.155.035-.207.03-.041.171-.095.206-.046.132.185.184.413.208.635.013.115.018.232.021.348.001.051.051.278-.005.315z" fill="#1D1E21" data-color="1"></path>
        <path d="M140.06 173.976c-.535.202-1.784.1-1.42-.12.45-.153 1.682-.291 1.42.12z" fill="#1D1E21" data-color="1"></path>
        <path d="M177.034 103.588c-.473.074-.503-.76-.587-1.209.293-.277.536.747.587 1.209z" fill="#1D1E21" data-color="1"></path>
        <path d="M144.989 174.031c-.432.279-.879.227-1.449.128.531-.47.992-.255 1.449-.128z" fill="#1D1E21" data-color="1"></path>
        <path d="M157.563 86.41c.432-.077 1.061.219 1.524.751-.052.28-1.76-.563-1.524-.751z" fill="#1D1E21" data-color="1"></path>
        <path d="M23.251 179.116c.199.115-.699 1.249-.891 1.168-.161-.184.589-1.317.891-1.168z" fill="#1D1E21" data-color="1"></path>
        <path d="M118.893 75.823c.144-.216 1.322.009 1.522.223 0 .327-1.476-.056-1.522-.223z" fill="#1D1E21" data-color="1"></path>
        <path d="M100.504 166.239c-.072.187-1.47-.171-1.378-.41-.004-.242 1.378.096 1.378.41z" fill="#1D1E21" data-color="1"></path>
        <path d="M36.59 166.218c-.202-.19.99-1.235 1.148-1.06.21.178-.967 1.238-1.148 1.06z" fill="#1D1E21" data-color="1"></path>
        <path d="M71.121 159.546a.074.074 0 0 1 0 .021c-.043.264-.492.157-.656.119a3.053 3.053 0 0 1-.438-.139c-.058-.023-.158-.043-.193-.102-.016-.027-.033-.222.026-.219.307.018.629-.019.925.084.083.029.322.129.336.236z" fill="#1D1E21" data-color="1"></path>
        <path d="M66.124 158.795c-.091.241-1.471.065-1.471-.141.202-.265 1.306-.102 1.471.141z" fill="#1D1E21" data-color="1"></path>
        <path d="M179.825 132.17c.268-.187.183.858-.15 1.245-.214.157-.173-.85.15-1.245z" fill="#1D1E21" data-color="1"></path>
        <path d="M179.894 118.484c-.322 0-.389-1.265-.197-1.577.367.106.441 1.489.197 1.577z" fill="#1D1E21" data-color="1"></path>
        <path d="M171.607 95.329c-.088-.005-.212-.004-.294-.04-.097-.044-.149-.128-.231-.19-.104-.078-.212-.15-.309-.236-.083-.074-.457-.539-.142-.538.204 0 .443.25.576.381.088.087.166.183.236.285.058.087.166.232.164.338z" fill="#1D1E21" data-color="1"></path>
        <path d="M140.014 80.179c-.32.148-.903-.018-1.49-.341-.047-.433 1.49.077 1.49.341z" fill="#1D1E21" data-color="1"></path>
        <path d="M110.876 72.844c-.302.136-1.207-.446-1.26-.698 0-.322 1.355.495 1.26.698z" fill="#1D1E21" data-color="1"></path>
        <path d="M94.302 164.622c0-.272 1.302-.036 1.379.249-.106.289-1.379-.053-1.379-.249z" fill="#1D1E21" data-color="1"></path>
        <path d="M30.21 171.845c.29.144-.887 1.233-1.022 1.097-.248-.319.915-1.291 1.022-1.097z" fill="#1D1E21" data-color="1"></path>
        <path d="M105.775 68.648c.273-.195 1.229.924 1.173 1.114-.547.09-1.283-.918-1.173-1.114z" fill="#1D1E21" data-color="1"></path>
    </g>
</svg>
