<svg viewBox="24.715835571289062 14.990666389465332 150.5681610107422 170.016845703125" height="200" width="200" xmlns="http://www.w3.org/2000/svg" data-type="color" role="img" preserveAspectRatio="xMidYMid meet" style="">
    <g>
        <path d="M25.648 15.095a.72.72 0 0 1 .15.226c.273.568.752.896 1.167 1.34.213.226.423.468.565.746.066.126.145.292.142.439-.005.208-.134.216-.347.21a.458.458 0 0 1-.305-.145c-.134-.131-.194-.318-.365-.415a6.926 6.926 0 0 1-.941-.607c-.365-.294-.696-.702-.87-1.141-.053-.131-.197-.531-.089-.665.11-.137.413-.081.56-.081.16.006.257.025.333.093z" fill="#1D1E21" data-color="1"></path>
        <path d="M137.059 176.415c-1.682.292-4.447-.008-4.284-.712-.002-.61 4.376-.323 4.284.712z" fill="#1D1E21" data-color="1"></path>
        <path d="M149.9 178.699c-.515.481-1.156.297-1.787.239-.652-.06-1.296-.179-1.842-.565-.155-.108-.047-.35.016-.494.016-.034.034-.071.066-.089.029-.018.063-.018.095-.021.62-.032 1.259-.008 1.866.142.289.071.568.171.836.302.253.121.534.313.75.486z" fill="#1D1E21" data-color="1"></path>
        <path d="M73.647 131.657c.126-.053.3.06.415.163.231.208.326.439.439.717.11.276.221.552.31.836.171.547.252 1.13.079 1.687-.047.15-.407.321-.555.003-.25-.544-.547-1.072-.72-1.648a3.626 3.626 0 0 1-.166-1.054c.003-.184.018-.373.076-.549.027-.087.072-.134.122-.155z" fill="#1D1E21" data-color="1"></path>
        <path d="M80.667 147.049c-.005.016-.011.029-.018.045a.374.374 0 0 1-.131.137c-.646.423-1.125-.468-1.427-.901-.392-.565-.702-1.183-.857-1.855-.013-.06-.026-.121-.013-.179.026-.129.168-.21.3-.208.131.003.252.071.36.147.499.363.77.951 1.075 1.487.167.295.826.944.711 1.327z" fill="#1D1E21" data-color="1"></path>
        <path d="M43.64 33.873c.331-.439 3.001 2.426 2.41 2.951-.57.15-2.602-2.481-2.41-2.951z" fill="#1D1E21" data-color="1"></path>
        <path d="M67.358 69.864c-.179.189-.647-.066-.767-.208-.321-.371-.528-.928-.696-1.38a8.509 8.509 0 0 1-.252-.794c-.074-.273-.226-.668.021-.894.173-.16.376-.116.526.05.378.418.62.951.791 1.482.092.289.163.583.229.88.035.151.261.73.148.864z" fill="#1D1E21" data-color="1"></path>
        <path d="M37.162 27.168c-.657.307-3.54-2.497-3.327-2.786.562-.464 3.327 1.549 3.327 2.786z" fill="#1D1E21" data-color="1"></path>
        <path d="M107.457 169.89c.166-.541 4.384.873 3.921 1.351-.97.389-4.121-.983-3.921-1.351z" fill="#1D1E21" data-color="1"></path>
        <path d="M158.462 180.775c.145-1.064 3.627-.008 4.539.673-.962.686-3.567.194-4.539-.673z" fill="#1D1E21" data-color="1"></path>
        <path d="M54.286 46.705c-.549 0-3.083-2.959-2.531-3.085.434-.187 2.815 2.599 2.531 3.085z" fill="#1D1E21" data-color="1"></path>
        <path d="M59.674 54.837c.468-.357 2.439 2.541 1.911 2.951-.671.152-2.122-2.691-1.911-2.951z" fill="#1D1E21" data-color="1"></path>
        <path d="M69.952 83.033c-.82-.394-1.38-3.603-.62-4.16.499-.179 1.174 3.978.62 4.16z" fill="#1D1E21" data-color="1"></path>
        <path d="M70.041 96.076c-.271.134-.549-.715-.568-.907-.032-.3-.074-.599-.095-.901-.045-.612.008-1.227.339-1.758.029-.047.518.06.552.171.189.597.279 1.233.244 1.858a3.882 3.882 0 0 1-.168.949c-.05.155-.105.315-.184.457a.324.324 0 0 1-.12.131z" fill="#1D1E21" data-color="1"></path>
        <path d="M70.336 109.074c-.696-.321-.854-3.727-.258-3.979.641 0 .681 3.85.258 3.979z" fill="#1D1E21" data-color="1"></path>
        <path d="M72.052 122.385c-.037.018-.081.011-.121.003-.486-.105-.657-.331-.815-.775a5.102 5.102 0 0 1-.218-.859 5.688 5.688 0 0 1-.068-1.114c.005-.155-.005-.407.092-.544.079-.108.449-.25.541-.121.347.486.484 1.085.547 1.669.034.302.047.61.055.915.003.132.134.729-.013.826z" fill="#1D1E21" data-color="1"></path>
        <path d="M119.777 173.417c.378-.568 3.474.024 4 .586 0 .859-3.879-.148-4-.586z" fill="#1D1E21" data-color="1"></path>
        <path d="M175.284 184.864c-.841.389-2.373-.047-3.916-.896-.123-1.138 3.916.203 3.916.896z" fill="#1D1E21" data-color="1"></path>
        <path d="M98.708 165.588c-.794.357-3.172-1.172-3.311-1.834 0-.847 3.561 1.3 3.311 1.834z" fill="#1D1E21" data-color="1"></path>
        <path d="M85.302 154.56c.717-.512 3.23 2.428 3.083 2.928-1.437.237-3.372-2.413-3.083-2.928z" fill="#1D1E21" data-color="1"></path>
    </g>
</svg>
