<svg viewBox="39.22267532348633 31.956113815307617 121.5548095703125 136.08738708496094" height="200" width="200" xmlns="http://www.w3.org/2000/svg" data-type="color" role="img" preserveAspectRatio="xMidYMid meet" style="">
    <g>
        <path d="M70.974 109.829c-1.35 6.42-3.094 13.267-11.424 13.136-9.382-.165-15.243-6.189-16.461-15.045-.922-6.716 4.477-9.481 10.601-9.185 7.572.361 15.671.592 17.284 11.094z" fill="#FCFAFA" data-color="1"></path>
        <path d="M128.548 69.218c.892-9.193 3.979-15.608 13.378-15.265 7.993.274 10.703 5.729 9.571 12.898-1.338 8.233-4.871 16.26-14.442 15.745-7.581-.411-8.369-7.958-8.507-13.378z" fill="#FCFAFA" data-color="1"></path>
        <path d="M157.352 131.112c-1.455 5.336-5.037 9.328-10.112 11.269-6.567 2.537-12.164 3.022-16.641 1.53-1.082-.336-2.276 0-2.873 1.008-1.754 2.873-3.246 6.007-5.448 8.619-3.731 4.44-9.216 11.231-15.709 10.186a11.191 11.191 0 0 1-2.052-.56c-4.44-1.828-6.791-6.903-9.216-10.709-3.321-5.336-5.933-11.157-7.985-17.089-3.992-11.455-6.754-24.589-4.477-36.679.485-2.612 1.231-5.187 2.463-7.537 5.672-10.858 13.507-14.104 23.283-9.627l.97.448c15.597 7.052 31.679 14.365 43.171 28.918 4.663 5.932 6.454 13.655 4.626 20.223z" fill="#FCFAFA" data-color="1"></path>
        <path d="M79.169 67.212c-.033.921-.066 1.777-.066 2.632l.066 1.514c.197 5.067.494 13.555-9.508 14.839a17.15 17.15 0 0 1-2.205.132c-3.817 0-7.337-1.481-10.068-4.113-2.468-2.402-4.705-5.363-5.692-8.752-1.119-3.882-.066-7.567 1.25-11.253 1.908-5.264 6.646-10.989 18.589-8.423 8.194 1.777 7.865 9.081 7.634 13.424z" fill="#FCFAFA" data-color="1"></path>
        <path d="M116.76 42.362c3.013 4.633 1.458 10.626-.356 16.393-1.361 4.276-4.309 7.484-8.067 8.845a11.17 11.17 0 0 1-3.79.68c-2.009 0-3.985-.583-5.702-1.685-3.92-2.527-6.382-5.961-7.127-9.914-.907-4.73.648-10.043 4.471-15.324 2.43-3.305 6.609-5.022 10.594-4.406 3.628.551 8.002 1.749 9.881 5.216.031.066.064.13.096.195z" fill="#FCFAFA" data-color="1"></path>
        <path d="M105.606 167.931a9.795 9.795 0 0 1-2.183-.617c-4.763-1.947-7.301-7.374-9.873-11.479-3.58-5.714-6.364-11.928-8.58-18.287-4.272-12.261-7.229-26.343-4.799-39.306.523-2.79 1.343-5.55 2.657-8.075 6.052-11.62 14.445-15.099 24.932-10.327l1.048.476c16.694 7.579 33.953 15.415 46.255 31.013 5 6.337 6.905 14.638 4.972 21.662-1.568 5.701-5.417 9.984-10.841 12.065-7.048 2.706-13.035 3.259-17.847 1.655-1.17-.39-2.414.006-3.057 1.058-1.898 3.106-3.507 6.44-5.855 9.247-3.983 4.764-9.862 12.018-16.829 10.915zm-6.421-82.179c-3.631 0-6.362 2.538-9.263 8.11-2.465 4.737-2.656 10.537-2.384 15.754.359 6.894 1.8 13.74 3.839 20.323 1.142 3.687 2.734 7.208 4.299 10.73 1.517 3.414 2.652 7.035 4.387 10.347 1.275 2.433 2.97 5.341 5.62 6.466 3.265 1.386 6.194-1.184 8.04-3.676 4.066-5.491 8.682-12.614 6.978-19.769-.511-2.147.174-5.626 2.323-6.138 2.142-.519 3.549 1.64 4.814 2.964 2.801 2.931 5.404 5.822 7.731 7.048 2.977 1.574 4.863 1.948 10.761-.316 3.832-1.468 5.375-4.467 5.995-6.72 1.271-4.623-.086-10.21-3.541-14.591-11.097-14.072-26.73-21.17-43.281-28.686l-1.05-.476c-1.978-.902-3.706-1.37-5.268-1.37z" fill="#1D1E21" data-color="2"></path>
        <path d="M67.784 89.773c-4.625 0-8.913-1.81-12.233-5.007-3.018-2.907-5.701-6.532-6.908-10.634-1.387-4.714-.078-9.2 1.521-13.677 2.288-6.396 8.073-13.346 22.586-10.218 9.964 2.155 9.537 11.015 9.281 16.309-.053 1.089-.107 2.163-.086 3.178l.061 1.855c.232 6.161.619 16.477-11.548 18.023-.927.117-1.819.171-2.674.171zM55.61 69.186c-.009 3.549 2.667 6.263 4.863 8.739 2.326 2.621 5.413 4.196 8.975 3.743 4.174-.531 4.857-1.995 4.564-9.792l-.062-1.972c-.027-1.195.029-2.464.092-3.744.303-6.278-.144-7.493-2.985-8.106-3.472-.749-8.003-1.352-10.934 1.186-1.403 1.215-1.91 2.8-2.665 4.418-.834 1.788-1.82 3.426-1.848 5.528z" fill="#1D1E21" data-color="2"></path>
        <path d="M105.128 70.762a12.94 12.94 0 0 1-7.026-2.058c-4.857-3.124-7.909-7.36-8.826-12.248-1.099-5.853.818-12.393 5.547-18.908 2.97-4.092 8.134-6.185 13.072-5.445 4.478.671 9.859 2.16 12.189 6.452.042.077.08.171.128.245 3.688 5.704 1.794 13.119-.463 20.225-1.669 5.255-5.296 9.234-9.953 10.909a13.72 13.72 0 0 1-4.668.828zm.127-30.825a4.721 4.721 0 0 0-1.21.423c-1.247.635-2.548 1.559-3.341 2.729-.912 1.346-1.727 2.763-2.371 4.257-1.022 2.371-1.684 5.052-1.198 7.634.51 2.71 2.292 5.068 5.294 7.001 1.353.871 3.003 1.027 4.658.433 2.294-.828 4.131-2.944 5.041-5.81 1.605-5.056 3.167-10.683 1.369-13.467-.683-1.058-1.831-1.721-2.971-2.185-1.705-.691-3.502-1.375-5.271-1.015z" fill="#1D1E21" data-color="2"></path>
        <path d="M52.222 96.561c-7.437-.36-13.994 2.999-12.874 11.155 1.479 10.755 8.596 18.072 19.991 18.272 10.115.16 12.234-8.156 13.874-15.953-1.959-12.754-11.795-13.034-20.991-13.474zm5.678 22.63c-6.117-.08-9.995-4.038-10.755-9.835-.6-4.398 2.919-6.197 6.917-5.997 4.958.24 10.235.36 11.315 7.237-.88 4.197-2.04 8.675-7.477 8.595z" fill="#1D1E21" data-color="2"></path>
        <path d="M142.221 51.582c-10.955-.4-14.553 7.077-15.593 17.792.16 6.317 1.079 15.113 9.915 15.593 11.155.6 15.273-8.756 16.832-18.352 1.321-8.356-1.838-14.713-11.154-15.033zm4.599 15.833c-.8 4.838-2.879 9.556-8.476 9.276-4.478-.24-4.918-4.678-5.038-7.876.56-5.397 2.359-9.156 7.876-8.956 4.718.159 6.317 3.357 5.638 7.556z" fill="#1D1E21" data-color="2"></path>
    </g>
</svg>
